<?xml version="1.0" encoding="UTF-8"?>
<svg id="Layer_1" xmlns="http://www.w3.org/2000/svg" version="1.1" xmlns:xlink="http://www.w3.org/1999/xlink" viewBox="0 0 512 512">
  <!-- Generator: Adobe Illustrator 29.3.1, SVG Export Plug-In . SVG Version: 2.1.0 Build 151)  -->
  <defs>
    <style>
      .st0 {
        fill: url(#linear-gradient);
      }
    </style>
    <linearGradient id="linear-gradient" x1="25.57" y1="254.66" x2="486.43" y2="254.66" gradientTransform="translate(0 512) scale(1 -1)" gradientUnits="userSpaceOnUse">
      <stop offset="0" stop-color="#f9f297"/>
      <stop offset=".34" stop-color="#e0ab3d"/>
      <stop offset=".71" stop-color="#f9f39a"/>
      <stop offset="1" stop-color="#b78a43"/>
    </linearGradient>
  </defs>
  <path class="st0" d="M265.99,44.93l46.34,142.61c1.92,5.9,7.41,9.89,13.62,9.89h149.95c10.18,0,14.41,13.02,6.18,19.01l-121.31,88.14c-5.02,3.65-7.12,10.11-5.2,16.01l46.34,142.61c3.15,9.68-7.93,17.73-16.17,11.75l-121.31-88.14c-5.02-3.65-11.81-3.65-16.83,0l-121.31,88.14c-8.23,5.98-19.31-2.07-16.17-11.75l46.34-142.61c1.92-5.9-.18-12.36-5.2-16.01L29.92,216.45c-8.23-5.98-4-19.01,6.18-19.01h149.95c6.2,0,11.7-3.99,13.62-9.89l46.34-142.61c3.15-9.68,16.84-9.68,19.98,0h0Z"/>
</svg>